<svg xmlns="http://www.w3.org/2000/svg" viewBox="0 0 48 48" id="Tire">
  <path d="M44.68 24a1 1 0 0 1 .64-1.9l1.63.54a22.82 22.82 0 0 0-6.21-14.39C39.32 9 39.3 9 39 9a1 1 0 0 1-.45-1.89l.67-.34A22.79 22.79 0 0 0 24.72 1C24.06 3 24 4 23 4a1 1 0 0 1-.95-1.32l.54-1.63A22.82 22.82 0 0 0 8.25 7.26l.64 1.29a1 1 0 0 1-1.78.9l-.34-.67A22.79 22.79 0 0 0 1 23.28l2.3.77A1 1 0 0 1 2.68 26l-1.63-.54a22.82 22.82 0 0 0 6.28 14.37l2.35-.78a1 1 0 0 1 .64 1.9L9 41.4A22.82 22.82 0 0 0 23.28 47l.77-2.3a1 1 0 0 1 1.9.64L25.41 47a22.82 22.82 0 0 0 14.42-6.28l-.78-2.35a1 1 0 0 1 1.9-.64L41.4 39A22.82 22.82 0 0 0 47 24.72ZM24 42a18 18 0 1 1 18-18 18 18 0 0 1-18 18Z" fill="#06b6d4" class="color000000 svgShape"></path>
  <path d="M19.83 12.74c-.06-.31.05.25-.73-4a15.78 15.78 0 0 0-5.88 3.42l3.1 2.6a11.77 11.77 0 0 1 3.51-2.02zm14.96-.55a16 16 0 0 0-5.89-3.42c-.74 4-.69 3.73-.73 4a11.67 11.67 0 0 1 3.52 2c.24-.17-.35.32 3.1-2.58zM35.84 22a12.39 12.39 0 0 1 0 4.13c.37.16-.23-.07 3.78 1.43a16 16 0 0 0 .06-6.92c-3.93 1.41-3.61 1.29-3.84 1.36zm-4.31 11.34a11.83 11.83 0 0 1-3.35 1.92c.05.34-.06-.29.72 4A16.26 16.26 0 0 0 34.59 36c-3.1-2.71-2.85-2.5-3.06-2.66zm-18.12 2.55A16.42 16.42 0 0 0 19.25 39c.76-3.88.71-3.58.75-3.83a12.27 12.27 0 0 1-3.45-1.83c-.27.2.16-.14-3.14 2.55zm-1.22-9.72a12.21 12.21 0 0 1 0-4.13c-.29-.12.48.16-3.82-1.37a16.15 16.15 0 0 0 .07 6.92c3.85-1.45 3.56-1.32 3.75-1.42zm5.13-4.24a6.84 6.84 0 0 1 1.5-2.64c-4.73-3.71-3.15-2.42-7-5.66a15.65 15.65 0 0 0-2.93 5.11c4.74 1.69 2.84.97 8.43 3.19zm1.55 6.83a6.91 6.91 0 0 1-1.54-2.62C11.8 28.5 13.69 27.75 9 29.51a16 16 0 0 0 3 5.07c3.79-3.31 2.24-1.99 6.87-5.82zm6.58 2.09a6.91 6.91 0 0 1-2.9 0c-.94 5.94-.59 3.93-1.5 8.89a16.25 16.25 0 0 0 5.9 0c-.95-4.97-.56-2.96-1.5-8.89zm5.22-4.71a7 7 0 0 1-1.54 2.63c4.63 3.82 3.08 2.5 6.88 5.81a16 16 0 0 0 3-5.07c-4.7-1.76-2.81-1.01-8.34-3.37zm-1.5-6.84a6.68 6.68 0 0 1 1.51 2.63c5.6-2.22 3.68-1.5 8.43-3.19a15.65 15.65 0 0 0-2.93-5.11c-3.85 3.24-2.27 1.95-7.01 5.67zm-6.62-2.15a6.75 6.75 0 0 1 2.9 0c.94-5.94.59-3.93 1.5-8.89a16.25 16.25 0 0 0-5.9 0c.95 4.97.56 2.96 1.5 8.89zm6.27 5.52a5 5 0 1 0-3.68 6.2 5 5 0 0 0 3.68-6.2zM24 27a3 3 0 1 1 3-3 3 3 0 0 1-3 3z" fill="#06b6d4" class="color000000 svgShape"></path>
  <path d="M24 23a1 1 0 0 0 0 2 1 1 0 0 0 0-2Z" fill="#06b6d4" class="color000000 svgShape"></path>
</svg>
